<svg xmlns="http://www.w3.org/2000/svg" width="500" height="170" viewBox="0 0 1000 340">
<g transform="translate(0.000000,340.000000) scale(0.100000,-0.100000)" fill="#6e8b5b" stroke="none">
<path d="M965 2625 c-85 -22 -108 -31 -187 -70 -480 -237 -736 -892 -570
-1455 190 -641 793 -959 1312 -692 106 55 192 115 295 206 129 115 203 198
490 555 838 1044 1026 1210 1365 1210 246 0 419 -105 580 -352 72 -110 69
-109 195 -105 112 4 114 10 52 135 -123 243 -377 482 -581 545 -341 105 -601
15 -960 -332 -254 -247 -344 -350 -791 -915 -355 -449 -554 -644 -745 -732
-377 -174 -758 7 -950 452 -205 474 45 1150 470 1274 25 7 55 17 68 22 243 95
582 -100 956 -548 85 -101 89 -102 160 -8 72 95 72 92 -31 216 -406 487 -781
684 -1128 594z"/>
<path d="M6784 1886 c-24 -18 -30 -1390 -6 -1419 15 -18 99 -28 125 -15 22 11
27 1414 5 1436 -17 17 -100 15 -124 -2z"/>
<path d="M7380 1719 c-7 -12 -11 -62 -10 -117 1 -53 1 -103 1 -109 -1 -10 -29
-13 -104 -13 -122 0 -127 -3 -127 -81 0 -71 -2 -70 121 -76 122 -7 107 53 110
-436 4 -477 -3 -439 80 -435 l64 3 5 430 5 430 114 3 c136 3 141 6 141 82 0
76 -5 79 -141 82 l-114 3 -3 120 c-3 135 -3 135 -79 135 -43 0 -54 -4 -63 -21z"/>
<path d="M5990 1479 c-191 -20 -369 -181 -412 -373 -69 -301 64 -548 352 -657
47 -18 263 -18 310 -1 76 29 180 86 206 113 45 47 -28 139 -78 99 -210 -165
-523 -101 -624 127 -64 144 -69 142 366 142 454 0 410 -11 410 104 0 294 -220
479 -530 446z m220 -162 c108 -54 201 -224 140 -257 -43 -23 -625 -8 -628 16
-26 181 292 338 488 241z"/>
<path d="M8285 1480 c-117 -12 -325 -129 -325 -182 0 -70 82 -98 137 -47 191
176 491 113 510 -108 8 -92 14 -90 -222 -96 -346 -9 -464 -87 -465 -305 -1
-310 395 -419 654 -180 30 28 35 23 38 -44 3 -63 3 -63 63 -63 l60 0 0 405 c0
460 3 443 -85 531 -75 76 -200 106 -365 89z m325 -656 c0 -238 -429 -370 -535
-164 -84 163 22 252 310 260 237 6 225 11 225 -96z"/>
<path d="M9280 1481 c-155 -19 -280 -141 -280 -275 0 -140 104 -239 310 -296
227 -63 275 -96 275 -190 0 -177 -280 -225 -457 -79 -56 47 -63 47 -111 8 -68
-56 -1 -126 193 -200 207 -79 492 51 515 235 22 177 -73 282 -310 344 -202 53
-265 97 -265 189 0 164 271 196 450 52 45 -36 143 22 114 69 -58 93 -269 163
-434 143z"/>
<path d="M3313 1474 c-17 -8 -16 -17 7 -69 11 -25 29 -65 40 -90 11 -25 20
-47 20 -50 0 -2 11 -28 24 -57 14 -30 34 -78 46 -107 11 -30 29 -73 40 -95 10
-23 32 -77 50 -121 17 -44 38 -95 46 -112 8 -18 20 -48 28 -65 8 -18 31 -76
52 -128 53 -136 142 -188 175 -103 6 15 17 42 25 60 8 18 20 48 28 66 8 17 26
58 40 90 14 32 26 60 26 62 0 2 14 34 30 70 17 36 30 68 30 70 0 2 12 30 26
62 14 32 32 72 39 88 7 17 20 47 29 68 15 35 26 59 60 140 8 17 25 57 38 87
62 139 61 140 -21 140 -70 0 -82 -9 -111 -85 -13 -33 -34 -82 -46 -110 -12
-27 -37 -86 -54 -130 -17 -44 -40 -98 -50 -121 -11 -22 -29 -65 -40 -95 -20
-51 -27 -68 -64 -152 -8 -18 -20 -45 -25 -60 -18 -46 -30 -29 -87 113 -29 74
-58 143 -64 152 -5 10 -10 22 -10 28 0 6 -9 32 -21 58 -25 56 -32 73 -54 132
-17 47 -21 55 -77 185 -34 79 -102 109 -175 79z"/>
<path d="M4470 1455 c-33 -86 -5 -731 35 -822 75 -169 327 -260 480 -174 80
45 133 85 149 113 30 50 45 36 48 -44 3 -73 3 -73 68 -73 l65 0 0 510 0 510
-65 0 -65 0 -5 -350 c-6 -391 -6 -394 -78 -468 -157 -163 -401 -114 -468 93
-5 14 -11 183 -14 375 l-5 350 -68 3 c-64 3 -68 2 -77 -23z"/>
<path d="M2656 1109 c-75 -95 -77 -91 163 -342 318 -332 376 -368 321 -203
-11 34 -25 77 -31 96 -26 87 -127 239 -297 444 -77 94 -84 94 -156 5z"/>
</g>
<g transform="translate(0.000000,340.000000) scale(0.100000,-0.100000)" fill="#2f3430" stroke="none">
<path d="M4845 2708 c-29 -74 3 -803 35 -803 35 0 35 0 40 290 5 276 6 292 27
325 55 88 120 123 234 124 186 1 217 -71 218 -512 1 -233 1 -233 39 -230 37 3
37 3 42 303 3 208 9 306 17 321 64 111 268 161 360 88 75 -60 77 -72 83 -409
5 -300 5 -300 40 -300 42 0 61 524 24 644 -62 199 -352 237 -502 66 -40 -45
-62 -57 -62 -32 0 150 -325 183 -465 46 -53 -51 -54 -50 -57 24 -3 62 -55 102
-73 55z"/>
<path d="M6470 2708 c-525 -221 -227 -995 305 -792 58 22 126 75 123 96 -6 38
-31 43 -75 14 -204 -135 -452 -56 -528 168 -36 106 -54 100 320 106 l330 5 -2
83 c-7 235 -263 409 -473 320z m249 -88 c80 -40 144 -138 139 -211 -3 -44 -3
-44 -282 -47 -305 -3 -304 -3 -286 55 64 195 262 289 429 203z"/>
<path d="M7135 2698 c-27 -111 2 -793 34 -796 48 -5 48 -6 43 259 -7 407 36
483 273 483 194 0 208 -29 215 -434 5 -305 5 -305 43 -308 48 -4 60 565 14
670 -79 177 -390 205 -505 46 -24 -33 -42 -22 -42 26 0 75 -60 117 -75 54z"/>
<path d="M8204 2685 c-179 -87 -293 -358 -217 -517 6 -13 19 -41 29 -63 100
-227 445 -294 639 -123 249 219 176 600 -138 727 -66 26 -236 14 -313 -24z
m323 -61 c215 -90 260 -418 80 -579 -81 -74 -228 -108 -314 -74 -173 70 -236
161 -236 339 1 254 237 411 470 314z"/>
<path d="M9105 2696 c-133 -60 -174 -205 -88 -306 43 -50 113 -84 243 -120
189 -52 254 -143 175 -246 -43 -56 -253 -97 -280 -54 -3 6 -13 10 -22 10 -9 0
-43 18 -76 41 -93 64 -150 27 -67 -43 205 -176 546 -96 549 128 2 126 -67 189
-269 244 -176 48 -215 79 -215 167 0 113 143 175 283 124 56 -21 69 -29 114
-69 54 -49 99 10 46 60 -92 87 -277 117 -393 64z"/>
</g>
</svg>