<svg version="1.0" xmlns="http://www.w3.org/2000/svg"
 width="500" height="277" viewBox="0 0 2310.000000 1280.000000"
 preserveAspectRatio="xMidYMid meet">
<g transform="translate(0.000000,1280.000000) scale(0.100000,-0.100000)"
fill="#6e8b5b" stroke="none">
<path d="M5396 12199 c-221 -1 -414 -4 -431 -6 -16 -2 -57 -8 -90 -14 -33 -5
-81 -17 -107 -25 -26 -9 -110 -28 -185 -43 -76 -16 -169 -41 -206 -56 -37 -14
-109 -38 -160 -51 -50 -14 -110 -35 -132 -48 -22 -13 -71 -34 -110 -46 -38
-13 -101 -40 -140 -60 -38 -21 -88 -44 -110 -50 -22 -7 -58 -24 -80 -38 -22
-14 -69 -41 -105 -59 -36 -19 -90 -49 -120 -67 -30 -19 -86 -54 -125 -78 -38
-25 -90 -57 -115 -72 -25 -15 -70 -46 -102 -69 -31 -23 -113 -85 -184 -137
-70 -52 -188 -149 -263 -215 -75 -66 -185 -167 -244 -225 -60 -57 -164 -170
-230 -249 -67 -79 -145 -172 -172 -205 -28 -34 -73 -90 -101 -126 -27 -36 -82
-114 -122 -175 -39 -60 -87 -132 -107 -160 -20 -27 -53 -78 -73 -112 -20 -34
-50 -83 -66 -110 -16 -26 -44 -70 -62 -98 -18 -27 -43 -72 -55 -99 -11 -27
-34 -68 -49 -93 -15 -24 -38 -69 -51 -101 -13 -31 -38 -81 -56 -110 -18 -30
-40 -78 -49 -106 -10 -28 -32 -78 -51 -112 -18 -34 -40 -85 -49 -115 -9 -30
-29 -78 -45 -106 -16 -29 -38 -88 -50 -130 -11 -43 -34 -102 -50 -131 -16 -29
-40 -92 -53 -140 -13 -48 -37 -119 -54 -157 -17 -39 -38 -101 -46 -139 -9 -37
-29 -101 -45 -140 -16 -39 -34 -96 -40 -126 -6 -30 -15 -102 -21 -160 -6 -58
-25 -177 -41 -265 -21 -114 -32 -220 -40 -370 -7 -133 -9 -402 -6 -735 4 -289
11 -570 17 -624 6 -55 18 -136 26 -180 8 -45 21 -130 28 -191 8 -60 19 -159
26 -220 7 -74 22 -142 45 -210 19 -55 41 -139 49 -187 8 -48 27 -115 42 -150
14 -35 39 -111 54 -170 15 -59 39 -130 53 -157 15 -27 38 -90 52 -141 14 -51
41 -122 59 -159 19 -36 37 -80 40 -97 4 -17 24 -60 44 -95 21 -35 46 -86 56
-114 10 -27 31 -70 46 -95 15 -25 47 -83 70 -130 23 -47 60 -120 82 -164 21
-43 54 -101 73 -129 19 -29 35 -56 35 -60 0 -5 29 -55 64 -110 35 -56 84 -132
109 -169 25 -37 67 -98 93 -135 27 -37 98 -129 157 -203 60 -74 161 -192 224
-262 63 -70 192 -203 287 -295 95 -92 217 -204 272 -247 54 -44 119 -96 144
-116 25 -20 71 -54 104 -76 32 -21 88 -59 125 -84 37 -25 89 -58 115 -75 26
-16 71 -45 99 -64 29 -18 79 -47 112 -63 33 -17 73 -40 88 -51 16 -11 56 -31
90 -46 34 -14 87 -40 117 -57 30 -18 73 -37 95 -44 22 -7 75 -30 117 -51 42
-21 109 -47 148 -58 39 -11 106 -34 149 -50 42 -16 118 -37 168 -46 50 -8 131
-29 181 -45 52 -17 136 -34 203 -42 81 -9 285 -13 699 -13 413 0 617 4 693 13
59 7 151 26 205 41 53 16 144 36 201 45 66 11 130 28 180 50 42 18 108 40 146
50 39 9 95 32 125 50 30 18 80 41 110 51 30 10 78 33 105 51 28 19 76 42 108
53 32 11 70 29 86 40 15 11 61 35 102 54 41 19 98 51 128 71 29 20 58 36 63
36 6 0 38 20 72 44 33 24 77 51 96 61 19 10 54 32 77 49 23 17 63 43 90 59 26
15 77 50 113 77 36 27 90 67 120 87 30 21 80 57 110 81 30 23 81 64 113 90 32
26 118 99 191 162 73 63 179 156 235 205 57 50 156 137 220 193 64 57 154 143
199 190 46 48 125 134 175 192 51 58 124 139 162 180 39 41 113 122 166 180
52 58 146 164 210 235 63 72 170 200 238 285 68 85 142 178 164 206 23 28 63
78 89 110 26 33 87 109 135 169 48 61 101 128 118 150 16 22 47 62 70 89 22
27 60 72 85 101 25 28 66 78 92 111 26 32 93 115 148 184 56 69 123 152 150
185 27 33 89 110 137 170 49 61 101 128 118 150 16 22 61 77 100 123 38 46 87
105 108 130 20 26 55 70 76 97 22 28 66 82 98 121 32 39 128 158 213 265 86
107 169 212 185 234 16 22 70 89 120 149 49 60 99 122 110 137 11 15 56 70
100 122 44 52 118 143 165 201 47 59 103 129 125 156 22 26 85 101 140 166 55
64 143 169 195 233 52 64 147 177 210 251 64 74 145 171 180 214 36 44 97 116
135 160 39 45 97 113 130 151 32 39 182 207 334 375 152 168 364 397 473 510
108 113 281 288 385 390 103 102 292 278 418 391 127 113 262 232 300 265 39
32 87 73 109 89 21 17 67 50 102 75 35 25 98 70 139 100 42 30 89 64 105 75
16 11 65 43 110 70 45 28 109 68 143 90 34 23 85 49 112 59 28 11 79 36 113
57 35 21 78 41 95 45 18 3 67 24 110 46 57 29 109 46 196 64 65 12 150 32 189
43 39 11 122 25 184 31 77 8 272 10 608 7 l495 -4 110 -27 c61 -15 163 -38
227 -52 76 -15 142 -36 185 -57 38 -19 86 -40 108 -47 22 -7 94 -41 160 -75
66 -34 145 -77 175 -95 30 -18 84 -52 120 -75 36 -23 85 -54 110 -69 25 -15
76 -51 114 -81 38 -30 121 -101 185 -157 64 -57 166 -152 226 -213 61 -60 132
-139 159 -175 27 -36 75 -94 105 -129 31 -35 100 -125 154 -200 54 -75 124
-174 156 -221 32 -47 68 -105 81 -130 12 -24 40 -67 60 -95 21 -27 47 -69 59
-93 12 -23 41 -73 66 -111 24 -37 61 -83 82 -101 20 -18 57 -42 82 -53 44 -19
68 -20 521 -21 445 -1 478 0 504 17 15 10 35 35 43 55 13 31 14 47 4 102 -7
38 -28 94 -50 135 -21 39 -46 93 -55 121 -9 28 -30 73 -47 99 -16 26 -41 76
-54 112 -14 35 -33 77 -44 91 -10 15 -38 65 -60 112 -23 47 -59 115 -79 151
-20 37 -54 91 -75 120 -21 30 -66 97 -99 149 -34 52 -82 122 -107 156 -25 33
-65 87 -89 120 -24 32 -75 102 -113 154 -39 52 -119 148 -179 215 -60 66 -227
238 -372 382 -145 143 -295 287 -334 320 -39 32 -104 84 -145 115 -41 32 -104
79 -140 105 -36 26 -105 73 -153 103 -48 30 -117 75 -154 98 -37 24 -89 55
-117 69 -27 14 -69 38 -91 54 -23 16 -65 37 -93 49 -28 11 -68 31 -89 45 -21
14 -76 38 -122 53 -47 16 -104 39 -127 51 -24 12 -83 32 -132 45 -48 13 -110
33 -136 45 -27 12 -73 28 -104 36 -31 7 -94 19 -141 25 -47 6 -137 24 -201 40
-64 16 -169 34 -233 40 -79 8 -222 11 -439 7 -223 -4 -345 -10 -397 -20 -41
-8 -113 -24 -160 -35 -47 -12 -143 -28 -215 -37 -75 -10 -159 -27 -200 -42
-38 -14 -122 -40 -185 -57 -63 -18 -137 -44 -165 -58 -27 -14 -77 -33 -110
-43 -33 -9 -87 -32 -121 -51 -34 -19 -86 -43 -116 -53 -30 -10 -73 -30 -95
-44 -22 -14 -70 -39 -106 -56 -37 -16 -81 -40 -99 -54 -18 -14 -55 -34 -83
-46 -27 -12 -72 -37 -100 -55 -27 -18 -70 -45 -95 -60 -25 -15 -75 -48 -111
-74 -37 -26 -101 -74 -144 -107 -42 -33 -103 -80 -135 -105 -32 -25 -150 -126
-261 -225 -112 -99 -251 -225 -309 -280 -58 -54 -242 -235 -410 -401 -168
-166 -474 -472 -681 -680 -206 -209 -404 -413 -439 -454 -35 -41 -100 -115
-144 -164 -45 -49 -137 -150 -206 -225 -69 -75 -154 -172 -190 -216 -36 -43
-83 -99 -105 -124 -22 -25 -63 -73 -91 -106 -27 -33 -60 -75 -73 -93 -12 -18
-80 -99 -149 -181 -70 -82 -150 -177 -179 -212 -28 -35 -116 -144 -195 -243
-79 -98 -156 -196 -173 -217 -16 -20 -82 -102 -146 -181 -63 -79 -128 -161
-145 -183 -16 -22 -69 -90 -119 -151 -49 -62 -114 -143 -144 -180 -29 -38 -74
-97 -100 -133 -25 -35 -82 -107 -127 -161 -45 -53 -96 -117 -115 -141 -19 -25
-60 -79 -91 -120 -31 -41 -81 -104 -110 -141 -29 -36 -80 -99 -113 -140 -33
-40 -76 -94 -95 -119 -19 -26 -62 -82 -95 -124 -33 -43 -82 -106 -110 -141
-27 -35 -105 -132 -173 -216 -68 -84 -151 -186 -185 -227 -34 -41 -98 -116
-142 -167 -44 -50 -132 -156 -195 -235 -63 -79 -153 -186 -200 -239 -47 -52
-130 -145 -185 -206 -55 -61 -149 -169 -210 -239 -60 -71 -144 -167 -186 -214
-42 -47 -182 -192 -310 -322 -129 -130 -295 -289 -370 -355 -74 -65 -168 -146
-208 -179 -40 -33 -114 -96 -163 -140 -49 -44 -120 -101 -156 -128 -37 -26
-96 -68 -132 -92 -36 -25 -90 -61 -120 -82 -30 -20 -73 -48 -95 -63 -22 -15
-60 -38 -85 -50 -25 -12 -62 -36 -82 -52 -21 -16 -66 -40 -100 -54 -34 -13
-80 -36 -102 -50 -21 -14 -70 -37 -109 -50 -38 -13 -91 -37 -116 -53 -25 -16
-68 -35 -96 -42 -27 -7 -88 -29 -135 -49 -47 -21 -110 -43 -140 -50 -30 -6
-108 -30 -173 -52 -114 -38 -127 -40 -340 -55 -155 -10 -300 -13 -482 -9 -143
3 -312 10 -376 15 -92 8 -134 18 -205 45 -49 19 -128 41 -176 49 -56 10 -119
30 -176 56 -49 23 -94 41 -100 41 -6 0 -33 7 -58 16 -26 9 -64 26 -83 38 -20
13 -63 33 -96 45 -33 12 -85 37 -115 55 -30 18 -75 42 -100 53 -25 11 -76 44
-115 73 -38 29 -92 71 -120 93 -27 23 -93 80 -145 127 -52 47 -141 125 -197
173 -55 47 -140 124 -189 169 -48 46 -130 135 -183 198 -53 63 -132 156 -176
206 -44 50 -93 108 -110 130 -16 21 -59 81 -94 134 -35 52 -72 113 -84 135
-11 22 -30 54 -43 70 -12 17 -36 61 -53 99 -17 37 -40 81 -52 97 -11 16 -31
60 -44 99 -13 39 -37 95 -54 123 -16 29 -36 78 -46 111 -9 32 -30 82 -46 111
-16 29 -43 94 -59 144 -16 50 -41 113 -54 139 -13 26 -31 85 -41 132 -9 47
-33 126 -52 175 -25 66 -38 121 -49 210 -8 66 -25 187 -39 269 -14 82 -30 217
-36 300 -7 96 -9 331 -6 646 4 403 9 532 26 695 11 110 25 234 31 275 5 41 16
136 24 210 11 102 22 156 46 220 17 47 40 132 51 190 13 73 31 129 58 185 22
44 45 98 51 120 7 22 27 67 45 100 18 33 40 85 49 116 8 30 28 73 43 95 14 21
39 70 55 109 16 38 40 84 54 102 13 18 37 61 53 95 16 35 44 86 62 115 19 28
56 87 83 130 27 43 60 94 73 113 13 19 45 65 71 101 26 36 67 95 91 130 25 35
99 125 166 199 67 74 200 210 294 303 95 92 208 195 252 230 44 34 121 91 170
127 49 36 117 83 151 105 35 22 84 50 111 62 26 12 62 34 81 48 18 14 61 36
95 50 33 13 85 37 113 53 29 17 82 38 118 47 36 9 99 32 141 51 42 19 121 43
175 54 54 11 141 34 193 51 72 23 127 32 235 41 87 6 290 8 531 5 215 -4 426
-11 471 -17 45 -5 110 -21 145 -34 35 -13 111 -34 169 -46 70 -14 125 -33 165
-55 34 -19 83 -39 110 -46 28 -6 84 -29 125 -50 41 -21 104 -52 140 -69 36
-17 99 -50 140 -73 42 -23 100 -59 130 -79 30 -21 58 -38 63 -38 4 0 42 -23
85 -51 42 -28 88 -60 102 -70 14 -10 50 -35 80 -55 30 -21 89 -62 130 -92 41
-31 127 -103 190 -161 63 -58 196 -184 295 -280 99 -96 261 -257 360 -356 99
-100 242 -247 317 -327 75 -80 196 -210 269 -289 72 -79 152 -169 178 -199 25
-30 98 -115 161 -190 63 -74 133 -157 155 -185 22 -27 76 -91 120 -140 44 -50
114 -132 155 -183 50 -62 88 -99 116 -112 22 -11 50 -20 63 -20 12 0 40 9 62
20 25 13 60 48 97 97 31 42 77 102 102 134 25 32 78 102 119 156 41 54 93 123
115 153 22 30 54 75 71 100 17 25 43 62 57 82 14 21 29 57 32 80 4 26 1 61 -7
89 -8 24 -39 79 -71 122 -31 42 -132 165 -224 274 -92 109 -183 218 -202 243
-18 25 -63 79 -99 120 -36 41 -120 134 -186 205 -66 72 -161 175 -210 231 -50
55 -121 136 -159 180 -38 43 -141 155 -230 248 -88 93 -220 224 -293 291 -72
68 -160 146 -195 175 -35 29 -147 129 -250 222 -103 93 -227 200 -277 236 -49
37 -120 89 -158 115 -37 27 -98 69 -135 95 -38 26 -111 74 -163 107 -52 33
-119 75 -148 94 -28 18 -74 44 -102 58 -27 14 -66 38 -85 53 -19 15 -57 37
-85 49 -27 12 -66 33 -86 47 -20 14 -71 38 -112 53 -41 16 -88 37 -104 48 -15
11 -60 32 -100 46 -40 15 -99 40 -133 57 -33 17 -90 37 -126 46 -36 8 -104 31
-150 50 -64 26 -118 39 -222 54 -76 10 -171 28 -212 39 -41 11 -144 27 -229
36 -113 11 -260 15 -555 14z"/>
</g>
</svg>
