<svg xmlns="http://www.w3.org/2000/svg" width="500" height="170" viewBox="0 0 5000 1700">
<g transform="translate(0.000000,1700.000000) scale(0.100000,-0.100000)" fill="#6e8b5b" stroke="none">
<path d="M24398 13609 c-7 0 -25 -5 -40 -10 -15 -6 -30 -19 -33 -30 -4 -10 -4
-28 0 -39 4 -11 22 -24 44 -31 30 -9 44 -8 74 5 31 13 37 20 37 46 0 26 -6 33
-35 46 -19 7 -40 14 -47 13z"/>
<path d="M5596 13199 c-221 -1 -414 -4 -431 -6 -16 -2 -57 -8 -90 -14 -33 -5
-81 -17 -107 -25 -26 -9 -110 -28 -185 -43 -76 -16 -169 -41 -206 -56 -37 -14
-109 -38 -160 -51 -50 -14 -110 -35 -132 -48 -22 -13 -71 -34 -110 -46 -38
-13 -101 -40 -140 -60 -38 -21 -88 -44 -110 -50 -22 -7 -58 -24 -80 -38 -22
-14 -69 -41 -105 -59 -36 -19 -90 -49 -120 -67 -30 -19 -86 -54 -125 -78 -38
-25 -90 -57 -115 -72 -25 -15 -70 -46 -102 -69 -31 -23 -113 -85 -184 -137
-70 -52 -188 -149 -263 -215 -75 -66 -185 -167 -244 -225 -60 -57 -164 -170
-230 -249 -67 -79 -145 -172 -172 -205 -28 -34 -73 -90 -101 -126 -27 -36 -82
-114 -122 -175 -39 -60 -87 -132 -107 -160 -20 -27 -53 -78 -73 -112 -20 -34
-50 -83 -66 -110 -16 -26 -44 -70 -62 -98 -18 -27 -43 -72 -55 -99 -11 -27
-34 -68 -49 -93 -15 -24 -38 -69 -51 -101 -13 -31 -38 -81 -56 -110 -18 -30
-40 -78 -49 -106 -10 -28 -32 -78 -51 -112 -18 -34 -40 -85 -49 -115 -9 -30
-29 -78 -45 -106 -16 -29 -38 -88 -50 -130 -11 -43 -34 -102 -50 -131 -16 -29
-40 -92 -53 -140 -13 -48 -37 -119 -54 -157 -17 -39 -38 -101 -46 -139 -9 -37
-29 -101 -45 -140 -16 -39 -34 -96 -40 -126 -6 -30 -15 -102 -21 -160 -6 -58
-25 -177 -41 -265 -21 -114 -32 -220 -40 -370 -7 -133 -9 -402 -6 -735 4 -289
11 -570 17 -624 6 -55 18 -136 26 -180 8 -45 21 -130 28 -191 8 -60 19 -159
26 -220 7 -74 22 -142 45 -210 19 -55 41 -139 49 -187 8 -48 27 -115 42 -150
14 -35 39 -111 54 -170 15 -59 39 -130 53 -157 15 -27 38 -90 52 -141 14 -51
41 -122 59 -159 19 -36 37 -80 40 -97 4 -17 24 -60 44 -95 21 -35 46 -86 56
-114 10 -27 31 -70 46 -95 15 -25 47 -83 70 -130 23 -47 60 -120 82 -164 21
-43 54 -101 73 -129 19 -29 35 -56 35 -60 0 -5 29 -55 64 -110 35 -56 84 -132
109 -169 25 -37 67 -98 93 -135 27 -37 98 -129 157 -203 60 -74 161 -192 224
-262 63 -70 192 -203 287 -295 95 -92 217 -204 272 -247 54 -44 119 -96 144
-116 25 -20 71 -54 104 -76 32 -21 88 -59 125 -84 37 -25 89 -58 115 -75 26
-16 71 -45 99 -64 29 -18 79 -47 112 -63 33 -17 73 -40 88 -51 16 -11 56 -31
90 -46 34 -14 87 -40 117 -57 30 -18 73 -37 95 -44 22 -7 75 -30 117 -51 42
-21 109 -47 148 -58 39 -11 106 -34 149 -50 42 -16 118 -37 168 -46 50 -8 131
-29 181 -45 52 -17 136 -34 203 -42 81 -9 285 -13 699 -13 413 0 617 4 693 13
59 7 151 26 205 41 53 16 144 36 201 45 66 11 130 28 180 50 42 18 108 40 146
50 39 9 95 32 125 50 30 18 80 41 110 51 30 10 78 33 105 51 28 19 76 42 108
53 32 11 70 29 86 40 15 11 61 35 102 54 41 19 98 51 128 71 29 20 58 36 63
36 6 0 38 20 72 44 33 24 77 51 96 61 19 10 54 32 77 49 23 17 63 43 90 59 26
15 77 50 113 77 36 27 90 67 120 87 30 21 80 57 110 81 30 23 81 64 113 90 32
26 118 99 191 162 73 63 179 156 235 205 57 50 156 137 220 193 64 57 154 143
199 190 46 48 125 134 175 192 51 58 124 139 162 180 39 41 113 122 166 180
52 58 146 164 210 235 63 72 170 200 238 285 68 85 142 178 164 206 23 28 63
78 89 110 26 33 87 109 135 169 48 61 101 128 118 150 16 22 47 62 70 89 22
27 60 72 85 101 25 28 66 78 92 111 26 32 93 115 148 184 56 69 123 152 150
185 27 33 89 110 137 170 49 61 101 128 118 150 16 22 61 77 100 123 38 46 87
105 108 130 20 26 55 70 76 97 22 28 66 82 98 121 32 39 128 158 213 265 86
107 169 212 185 234 16 22 70 89 120 149 49 60 99 122 110 137 11 15 56 70
100 122 44 52 118 143 165 201 47 59 103 129 125 156 22 26 85 101 140 166 55
64 143 169 195 233 52 64 147 177 210 251 64 74 145 171 180 214 36 44 97 116
135 160 39 45 97 113 130 151 32 39 182 207 334 375 152 168 364 397 473 510
108 113 281 288 385 390 103 102 292 278 418 391 127 113 262 232 300 265 39
32 87 73 109 89 21 17 67 50 102 75 35 25 98 70 139 100 42 30 89 64 105 75
16 11 65 43 110 70 45 28 109 68 143 90 34 23 85 49 112 59 28 11 79 36 113
57 35 21 78 41 95 45 18 3 67 24 110 46 57 29 109 46 196 64 65 12 150 32 189
43 39 11 122 25 184 31 77 8 272 10 608 7 l495 -4 110 -27 c61 -15 163 -38
227 -52 76 -15 142 -36 185 -57 38 -19 86 -40 108 -47 22 -7 94 -41 160 -75
66 -34 145 -77 175 -95 30 -18 84 -52 120 -75 36 -23 85 -54 110 -69 25 -15
76 -51 114 -81 38 -30 121 -101 185 -157 64 -57 166 -152 226 -213 61 -60 132
-139 159 -175 27 -36 75 -94 105 -129 31 -35 100 -125 154 -200 54 -75 124
-174 156 -221 32 -47 68 -105 81 -130 12 -24 40 -67 60 -95 21 -27 47 -69 59
-93 12 -23 41 -73 66 -111 24 -37 61 -83 82 -101 20 -18 57 -42 82 -53 44 -19
68 -20 521 -21 445 -1 478 0 504 17 15 10 35 35 43 55 13 31 14 47 4 102 -7
38 -28 94 -50 135 -21 39 -46 93 -55 121 -9 28 -30 73 -47 99 -16 26 -41 76
-54 112 -14 35 -33 77 -44 91 -10 15 -38 65 -60 112 -23 47 -59 115 -79 151
-20 37 -54 91 -75 120 -21 30 -66 97 -99 149 -34 52 -82 122 -107 156 -25 33
-65 87 -89 120 -24 32 -75 102 -113 154 -39 52 -119 148 -179 215 -60 66 -227
238 -372 382 -145 143 -295 287 -334 320 -39 32 -104 84 -145 115 -41 32 -104
79 -140 105 -36 26 -105 73 -153 103 -48 30 -117 75 -154 98 -37 24 -89 55
-117 69 -27 14 -69 38 -91 54 -23 16 -65 37 -93 49 -28 11 -68 31 -89 45 -21
14 -76 38 -122 53 -47 16 -104 39 -127 51 -24 12 -83 32 -132 45 -48 13 -110
33 -136 45 -27 12 -73 28 -104 36 -31 7 -94 19 -141 25 -47 6 -137 24 -201 40
-64 16 -169 34 -233 40 -79 8 -222 11 -439 7 -223 -4 -345 -10 -397 -20 -41
-8 -113 -24 -160 -35 -47 -12 -143 -28 -215 -37 -75 -10 -159 -27 -200 -42
-38 -14 -122 -40 -185 -57 -63 -18 -137 -44 -165 -58 -27 -14 -77 -33 -110
-43 -33 -9 -87 -32 -121 -51 -34 -19 -86 -43 -116 -53 -30 -10 -73 -30 -95
-44 -22 -14 -70 -39 -106 -56 -37 -16 -81 -40 -99 -54 -18 -14 -55 -34 -83
-46 -27 -12 -72 -37 -100 -55 -27 -18 -70 -45 -95 -60 -25 -15 -75 -48 -111
-74 -37 -26 -101 -74 -144 -107 -42 -33 -103 -80 -135 -105 -32 -25 -150 -126
-261 -225 -112 -99 -251 -225 -309 -280 -58 -54 -242 -235 -410 -401 -168
-166 -474 -472 -681 -680 -206 -209 -404 -413 -439 -454 -35 -41 -100 -115
-144 -164 -45 -49 -137 -150 -206 -225 -69 -75 -154 -172 -190 -216 -36 -43
-83 -99 -105 -124 -22 -25 -63 -73 -91 -106 -27 -33 -60 -75 -73 -93 -12 -18
-80 -99 -149 -181 -70 -82 -150 -177 -179 -212 -28 -35 -116 -144 -195 -243
-79 -98 -156 -196 -173 -217 -16 -20 -82 -102 -146 -181 -63 -79 -128 -161
-145 -183 -16 -22 -69 -90 -119 -151 -49 -62 -114 -143 -144 -180 -29 -38 -74
-97 -100 -133 -25 -35 -82 -107 -127 -161 -45 -53 -96 -117 -115 -141 -19 -25
-60 -79 -91 -120 -31 -41 -81 -104 -110 -141 -29 -36 -80 -99 -113 -140 -33
-40 -76 -94 -95 -119 -19 -26 -62 -82 -95 -124 -33 -43 -82 -106 -110 -141
-27 -35 -105 -132 -173 -216 -68 -84 -151 -186 -185 -227 -34 -41 -98 -116
-142 -167 -44 -50 -132 -156 -195 -235 -63 -79 -153 -186 -200 -239 -47 -52
-130 -145 -185 -206 -55 -61 -149 -169 -210 -239 -60 -71 -144 -167 -186 -214
-42 -47 -182 -192 -310 -322 -129 -130 -295 -289 -370 -355 -74 -65 -168 -146
-208 -179 -40 -33 -114 -96 -163 -140 -49 -44 -120 -101 -156 -128 -37 -26
-96 -68 -132 -92 -36 -25 -90 -61 -120 -82 -30 -20 -73 -48 -95 -63 -22 -15
-60 -38 -85 -50 -25 -12 -62 -36 -82 -52 -21 -16 -66 -40 -100 -54 -34 -13
-80 -36 -102 -50 -21 -14 -70 -37 -109 -50 -38 -13 -91 -37 -116 -53 -25 -16
-68 -35 -96 -42 -27 -7 -88 -29 -135 -49 -47 -21 -110 -43 -140 -50 -30 -6
-108 -30 -173 -52 -114 -38 -127 -40 -340 -55 -155 -10 -300 -13 -482 -9 -143
3 -312 10 -376 15 -92 8 -134 18 -205 45 -49 19 -128 41 -176 49 -56 10 -119
30 -176 56 -49 23 -94 41 -100 41 -6 0 -33 7 -58 16 -26 9 -64 26 -83 38 -20
13 -63 33 -96 45 -33 12 -85 37 -115 55 -30 18 -75 42 -100 53 -25 11 -76 44
-115 73 -38 29 -92 71 -120 93 -27 23 -93 80 -145 127 -52 47 -141 125 -197
173 -55 47 -140 124 -189 169 -48 46 -130 135 -183 198 -53 63 -132 156 -176
206 -44 50 -93 108 -110 130 -16 21 -59 81 -94 134 -35 52 -72 113 -84 135
-11 22 -30 54 -43 70 -12 17 -36 61 -53 99 -17 37 -40 81 -52 97 -11 16 -31
60 -44 99 -13 39 -37 95 -54 123 -16 29 -36 78 -46 111 -9 32 -30 82 -46 111
-16 29 -43 94 -59 144 -16 50 -41 113 -54 139 -13 26 -31 85 -41 132 -9 47
-33 126 -52 175 -25 66 -38 121 -49 210 -8 66 -25 187 -39 269 -14 82 -30 217
-36 300 -7 96 -9 331 -6 646 4 403 9 532 26 695 11 110 25 234 31 275 5 41 16
136 24 210 11 102 22 156 46 220 17 47 40 132 51 190 13 73 31 129 58 185 22
44 45 98 51 120 7 22 27 67 45 100 18 33 40 85 49 116 8 30 28 73 43 95 14 21
39 70 55 109 16 38 40 84 54 102 13 18 37 61 53 95 16 35 44 86 62 115 19 28
56 87 83 130 27 43 60 94 73 113 13 19 45 65 71 101 26 36 67 95 91 130 25 35
99 125 166 199 67 74 200 210 294 303 95 92 208 195 252 230 44 34 121 91 170
127 49 36 117 83 151 105 35 22 84 50 111 62 26 12 62 34 81 48 18 14 61 36
95 50 33 13 85 37 113 53 29 17 82 38 118 47 36 9 99 32 141 51 42 19 121 43
175 54 54 11 141 34 193 51 72 23 127 32 235 41 87 6 290 8 531 5 215 -4 426
-11 471 -17 45 -5 110 -21 145 -34 35 -13 111 -34 169 -46 70 -14 125 -33 165
-55 34 -19 83 -39 110 -46 28 -6 84 -29 125 -50 41 -21 104 -52 140 -69 36
-17 99 -50 140 -73 42 -23 100 -59 130 -79 30 -21 58 -38 63 -38 4 0 42 -23
85 -51 42 -28 88 -60 102 -70 14 -10 50 -35 80 -55 30 -21 89 -62 130 -92 41
-31 127 -103 190 -161 63 -58 196 -184 295 -280 99 -96 261 -257 360 -356 99
-100 242 -247 317 -327 75 -80 196 -210 269 -289 72 -79 152 -169 178 -199 25
-30 98 -115 161 -190 63 -74 133 -157 155 -185 22 -27 76 -91 120 -140 44 -50
114 -132 155 -183 50 -62 88 -99 116 -112 22 -11 50 -20 63 -20 12 0 40 9 62
20 25 13 60 48 97 97 31 42 77 102 102 134 25 32 78 102 119 156 41 54 93 123
115 153 22 30 54 75 71 100 17 25 43 62 57 82 14 21 29 57 32 80 4 26 1 61 -7
89 -8 24 -39 79 -71 122 -31 42 -132 165 -224 274 -92 109 -183 218 -202 243
-18 25 -63 79 -99 120 -36 41 -120 134 -186 205 -66 72 -161 175 -210 231 -50
55 -121 136 -159 180 -38 43 -141 155 -230 248 -88 93 -220 224 -293 291 -72
68 -160 146 -195 175 -35 29 -147 129 -250 222 -103 93 -227 200 -277 236 -49
37 -120 89 -158 115 -37 27 -98 69 -135 95 -38 26 -111 74 -163 107 -52 33
-119 75 -148 94 -28 18 -74 44 -102 58 -27 14 -66 38 -85 53 -19 15 -57 37
-85 49 -27 12 -66 33 -86 47 -20 14 -71 38 -112 53 -41 16 -88 37 -104 48 -15
11 -60 32 -100 46 -40 15 -99 40 -133 57 -33 17 -90 37 -126 46 -36 8 -104 31
-150 50 -64 26 -118 39 -222 54 -76 10 -171 28 -212 39 -41 11 -144 27 -229
36 -113 11 -260 15 -555 14z"/>
<path d="M24652 12888 c-21 2 -34 -2 -38 -12 -3 -8 -4 -25 -2 -38 2 -19 9 -23
38 -23 33 0 35 2 35 35 0 32 -3 35 -33 38z"/>
<path d="M27252 12788 c-21 2 -34 -2 -38 -12 -3 -8 -4 -25 -2 -38 2 -19 9 -23
38 -23 33 0 35 2 35 35 0 32 -3 35 -33 38z"/>
<path d="M27350 12180 c-5 0 -19 -9 -30 -20 -20 -20 -20 -33 -20 -1260 0
-1227 0 -1240 20 -1260 11 -11 25 -20 30 -20 6 0 19 9 30 20 20 20 20 33 20
1260 0 1227 0 1240 -20 1260 -11 11 -24 20 -30 20z"/>
<path d="M38550 12080 c-10 0 -26 -10 -34 -22 -14 -20 -16 -142 -16 -1110 0
-974 2 -1088 16 -1102 8 -9 24 -16 34 -16 10 0 26 7 34 16 14 14 16 128 16
1102 0 968 -2 1090 -16 1110 -8 12 -24 22 -34 22z"/>
<path d="M34359 11883 c-11 3 -26 -2 -35 -10 -8 -9 -13 -22 -10 -30 3 -8 6
-17 6 -19 0 -2 13 -4 29 -4 16 0 31 6 35 15 3 8 3 21 0 29 -3 8 -14 16 -25 19z"/>
<path d="M36050 10150 c-13 0 -24 -10 -31 -27 -6 -16 -9 -56 -7 -91 3 -42 10
-68 22 -80 16 -16 18 -16 37 7 14 17 19 39 19 81 0 32 -4 70 -10 84 -6 16 -17
26 -30 26z"/>
<path d="M46250 9780 c-4 0 -13 -7 -20 -16 -11 -12 -10 -18 3 -32 16 -15 18
-15 34 0 13 14 14 20 3 32 -7 9 -16 16 -20 16z"/>
<path d="M38552 9668 c-13 2 -25 -3 -28 -13 -4 -9 -2 -21 4 -27 5 -5 18 -8 28
-6 11 2 19 12 19 23 0 13 -8 21 -23 23z"/>
<path d="M41823 9501 c-15 2 -58 2 -94 -1 -36 -3 -73 -11 -82 -19 -10 -7 -17
-24 -17 -37 0 -13 8 -28 18 -33 10 -5 47 -10 82 -11 36 -1 77 -1 92 -1 18 1
33 10 44 26 15 23 15 27 1 49 -9 13 -28 25 -44 27z"/>
<path d="M32858 9500 c-59 0 -90 -4 -106 -16 -12 -8 -22 -24 -22 -34 0 -10 10
-26 22 -34 16 -12 47 -16 106 -16 46 0 92 5 103 10 12 7 19 21 19 40 0 19 -7
33 -19 40 -11 5 -57 10 -103 10z"/>
<path d="M42128 9500 c-72 0 -79 -2 -94 -25 -15 -23 -15 -27 0 -50 15 -23 22
-25 94 -25 42 0 88 6 102 13 16 8 25 21 25 37 0 16 -9 29 -25 37 -14 7 -60 13
-102 13z"/>
<path d="M34300 9486 c-107 1 -211 0 -230 -2 -19 -2 -58 -9 -87 -14 -41 -9
-59 -20 -91 -54 -22 -23 -46 -60 -53 -82 -12 -33 -14 -467 -14 -2744 0 -1914
4 -2869 13 -3265 7 -308 16 -650 21 -761 7 -182 10 -204 31 -241 13 -24 39
-50 63 -63 37 -21 58 -24 251 -31 116 -4 234 -3 263 1 28 5 63 16 77 25 13 9
31 31 40 50 15 30 16 359 16 3546 l0 3513 -21 43 c-12 25 -34 51 -53 61 -26
14 -62 17 -226 18z"/>
<path d="M33252 9478 c-13 2 -25 -3 -28 -12 -3 -9 -3 -23 0 -32 3 -9 15 -14
28 -12 17 2 23 10 23 28 0 18 -6 26 -23 28z"/>
<path d="M46050 9480 c-4 0 -13 -7 -20 -16 -11 -12 -10 -18 3 -32 16 -15 18
-15 34 0 13 14 14 20 3 32 -7 9 -16 16 -20 16z"/>
<path d="M46550 9470 c-13 0 -20 -7 -20 -20 0 -13 7 -20 20 -20 13 0 20 7 20
20 0 13 -7 20 -20 20z"/>
<path d="M37260 8687 c-135 1 -260 -2 -278 -7 -18 -4 -44 -18 -58 -31 -14 -13
-32 -48 -41 -79 -13 -42 -17 -100 -17 -250 -1 -107 1 -341 4 -520 4 -274 2
-329 -10 -348 -8 -12 -31 -30 -50 -40 -31 -15 -84 -18 -515 -22 -459 -5 -482
-6 -515 -25 -21 -12 -44 -39 -57 -65 -22 -42 -23 -55 -23 -295 0 -226 2 -254
20 -293 15 -33 29 -47 62 -62 38 -16 87 -20 413 -29 204 -6 404 -8 446 -4 48
3 89 1 113 -7 20 -6 50 -23 66 -36 17 -15 31 -38 34 -57 3 -18 8 -790 12
-1717 3 -927 7 -1858 7 -2070 2 -381 2 -385 25 -421 12 -20 39 -45 60 -55 32
-15 68 -18 287 -18 213 -1 254 2 280 16 17 9 37 24 47 34 9 11 21 37 27 59 8
28 11 645 11 2116 l0 2076 21 27 c12 15 33 32 48 38 15 5 243 12 566 15 477 4
544 7 574 21 19 10 44 30 55 45 20 27 21 44 24 307 3 265 2 281 -18 319 -11
22 -35 49 -53 58 -29 16 -80 18 -582 23 -378 4 -558 9 -575 17 -14 6 -32 19
-40 28 -13 15 -16 107 -20 579 -5 510 -7 564 -23 596 -9 20 -32 45 -50 55 -29
18 -53 20 -277 22z"/>
<path d="M30335 7429 c-38 -1 -164 -8 -280 -15 -115 -7 -246 -18 -289 -24 -44
-6 -111 -24 -150 -39 -39 -16 -96 -34 -126 -40 -30 -7 -68 -18 -85 -24 -16 -6
-46 -21 -66 -35 -20 -13 -70 -36 -110 -51 -41 -16 -101 -44 -134 -64 -33 -19
-80 -48 -103 -64 -24 -15 -75 -48 -112 -73 -38 -25 -101 -72 -142 -105 -40
-33 -120 -106 -178 -162 -58 -56 -140 -148 -181 -204 -40 -56 -90 -123 -109
-148 -19 -25 -54 -82 -79 -126 -24 -44 -54 -100 -67 -125 -13 -25 -44 -86 -68
-136 -25 -51 -51 -114 -57 -140 -7 -27 -29 -85 -50 -129 -31 -64 -42 -101 -53
-190 -8 -60 -29 -151 -45 -201 -20 -59 -34 -130 -41 -200 -5 -60 -10 -215 -10
-344 0 -129 5 -289 11 -354 7 -80 20 -149 39 -210 16 -50 36 -138 45 -196 11
-78 25 -126 54 -190 22 -47 47 -110 56 -140 9 -30 26 -67 36 -82 11 -15 35
-61 54 -103 20 -42 46 -91 59 -108 13 -18 34 -52 46 -77 12 -25 54 -87 92
-139 39 -51 134 -159 212 -238 77 -80 191 -188 251 -240 61 -52 127 -104 147
-114 20 -10 63 -37 94 -59 32 -22 62 -40 68 -40 6 0 43 -19 81 -41 39 -23 94
-50 124 -60 30 -11 79 -33 108 -49 29 -17 86 -39 128 -51 41 -11 103 -33 137
-48 35 -16 88 -34 118 -39 30 -6 96 -14 145 -17 50 -4 135 -14 190 -23 71 -12
164 -17 320 -17 166 0 242 4 310 17 50 9 135 20 190 23 55 4 124 11 154 16 30
5 84 22 120 39 36 16 99 37 139 45 43 9 103 31 145 54 40 22 90 44 112 50 22
6 65 26 96 44 30 18 75 41 100 51 24 9 62 30 84 45 22 16 67 43 100 60 33 18
90 53 126 79 37 26 96 74 133 106 36 33 75 78 86 101 11 23 20 52 20 66 0 13
-9 44 -20 68 -11 24 -37 64 -58 90 -21 25 -46 60 -57 76 -10 17 -45 62 -77
101 -32 39 -70 76 -83 82 -14 7 -39 12 -54 12 -19 0 -62 -22 -121 -62 -51 -35
-113 -76 -139 -92 -25 -16 -71 -46 -101 -66 -30 -20 -78 -49 -107 -63 -28 -15
-68 -38 -88 -51 -19 -14 -66 -34 -103 -47 -37 -12 -90 -34 -118 -50 -37 -21
-84 -34 -175 -49 -68 -12 -164 -30 -213 -41 -49 -11 -146 -24 -215 -30 -69 -5
-166 -7 -216 -3 -49 3 -148 19 -220 34 -71 16 -170 34 -219 40 -67 9 -105 21
-154 47 -36 19 -98 43 -138 53 -44 11 -97 33 -133 56 -33 22 -103 66 -156 99
-53 33 -138 95 -190 138 -52 43 -127 115 -166 160 -39 45 -83 100 -97 122 -14
22 -37 58 -52 80 -15 22 -42 69 -60 104 -18 36 -43 81 -55 100 -13 20 -31 64
-40 98 -8 34 -33 99 -54 143 -29 59 -41 99 -46 148 -3 37 -11 108 -17 157 -6
50 -10 105 -10 123 1 19 11 49 22 67 11 18 34 38 50 45 23 10 143 10 572 0
311 -7 1060 -12 1753 -11 666 1 1282 5 1370 10 117 6 169 13 193 25 17 9 40
31 49 49 16 29 18 68 17 432 0 275 -4 422 -13 470 -7 38 -26 100 -42 136 -16
37 -36 100 -44 140 -9 41 -31 101 -49 134 -18 33 -41 85 -51 115 -9 30 -29 75
-43 100 -14 25 -37 68 -50 95 -13 28 -43 76 -66 107 -22 32 -60 85 -84 117
-23 33 -80 102 -126 154 -46 51 -123 129 -170 173 -48 43 -115 98 -149 122
-34 23 -80 54 -102 69 -22 14 -69 45 -105 68 -36 22 -87 49 -115 60 -27 10
-72 33 -100 51 -29 19 -79 40 -119 49 -37 8 -100 29 -138 46 -39 17 -98 35
-132 40 -33 5 -160 15 -281 24 -121 8 -251 14 -290 14z m65 -660 c41 -4 129
-18 195 -32 66 -14 157 -32 203 -40 53 -10 99 -26 130 -45 26 -16 72 -38 103
-50 31 -11 85 -39 120 -61 35 -22 89 -57 119 -78 30 -21 106 -88 168 -151 76
-76 135 -147 182 -219 39 -58 70 -111 70 -118 0 -7 23 -57 50 -112 46 -90 52
-109 65 -216 8 -64 21 -144 30 -176 8 -32 15 -70 15 -84 0 -14 -12 -39 -26
-56 -17 -20 -44 -36 -77 -46 -37 -10 -113 -15 -262 -17 -115 -2 -796 -2 -1512
0 l-1301 2 -31 26 c-19 16 -33 39 -37 62 -4 20 -2 73 4 118 7 52 21 102 38
136 15 29 37 83 50 120 12 37 36 87 53 111 16 24 41 68 55 98 14 30 46 83 70
119 25 36 62 87 83 114 21 28 68 82 104 120 38 41 111 101 170 140 57 38 133
89 169 112 36 23 88 47 115 54 28 6 77 26 110 45 33 18 85 38 115 43 30 6 82
14 115 18 33 3 114 17 180 31 66 13 158 27 205 31 47 4 119 4 160 1z"/>
<path d="M41880 7424 c-91 2 -219 0 -285 -5 -66 -5 -182 -13 -257 -18 -118 -9
-149 -15 -225 -44 -48 -19 -126 -44 -172 -56 -46 -11 -105 -34 -130 -50 -25
-16 -76 -38 -113 -50 -37 -12 -77 -30 -90 -40 -13 -10 -48 -31 -78 -46 -30
-15 -75 -42 -100 -60 -25 -18 -61 -40 -80 -50 -19 -10 -62 -38 -97 -64 -34
-25 -90 -66 -125 -91 -34 -25 -114 -94 -176 -155 -63 -60 -125 -129 -139 -153
-20 -33 -24 -52 -20 -82 3 -22 13 -50 24 -64 10 -13 69 -79 131 -147 62 -68
135 -144 163 -168 38 -33 60 -45 94 -48 l43 -5 134 132 c73 72 160 153 193
180 33 27 80 65 105 84 25 20 76 52 114 72 38 20 85 46 105 59 20 13 63 31 96
40 33 9 96 34 140 55 68 33 96 41 190 50 61 6 148 21 195 33 67 16 117 21 240
21 116 1 176 -4 240 -18 47 -10 140 -26 207 -36 98 -14 133 -24 178 -49 31
-17 78 -40 106 -51 27 -11 84 -46 127 -79 42 -32 113 -94 156 -137 44 -44 104
-117 134 -163 30 -47 61 -100 68 -118 8 -18 25 -99 38 -180 17 -102 27 -213
31 -353 7 -204 7 -205 -16 -234 -12 -16 -41 -37 -63 -47 -39 -17 -79 -19 -665
-19 -371 0 -661 -4 -715 -11 -50 -5 -163 -19 -251 -29 -88 -11 -203 -22 -255
-25 -52 -3 -124 -11 -159 -16 -36 -6 -95 -23 -132 -39 -37 -17 -100 -37 -140
-45 -41 -9 -98 -30 -129 -47 -30 -17 -85 -41 -123 -54 -37 -13 -80 -32 -96
-44 -16 -11 -56 -33 -88 -49 -32 -16 -87 -53 -123 -81 -36 -29 -109 -100 -164
-159 -54 -58 -104 -115 -111 -126 -6 -11 -31 -50 -54 -86 -23 -37 -55 -101
-71 -143 -16 -42 -36 -86 -44 -99 -9 -12 -22 -49 -30 -82 -8 -33 -20 -136 -27
-230 -7 -97 -9 -232 -6 -315 4 -80 12 -183 17 -230 8 -61 22 -109 49 -170 22
-47 44 -102 51 -122 6 -20 23 -54 37 -75 14 -21 39 -60 55 -87 16 -27 63 -89
104 -137 41 -49 110 -120 152 -158 42 -39 116 -97 163 -130 48 -33 111 -72
140 -87 30 -15 68 -38 86 -51 18 -14 59 -33 92 -43 33 -11 91 -35 130 -54 59
-30 88 -38 173 -47 57 -5 165 -19 240 -29 76 -11 170 -20 211 -20 40 0 125 7
188 15 63 9 177 22 255 29 126 13 148 18 210 49 38 19 94 42 124 51 30 9 80
32 110 50 31 19 79 44 107 55 28 11 82 40 120 65 37 25 89 61 114 80 25 18 61
42 80 51 19 10 68 43 109 73 41 31 111 91 155 134 44 43 95 83 113 89 26 9 37
8 57 -5 14 -9 28 -28 31 -42 4 -14 -1 -106 -11 -205 -10 -99 -15 -200 -11
-225 3 -25 14 -59 23 -76 10 -16 37 -42 61 -58 27 -18 69 -33 111 -41 51 -9
110 -9 232 -2 131 7 170 13 192 28 15 10 35 32 45 49 15 28 16 163 20 1566 2
929 -1 1679 -7 1900 -6 201 -15 391 -21 422 -6 31 -24 85 -39 120 -16 35 -36
95 -46 135 -11 47 -33 98 -65 150 -27 43 -82 122 -122 177 -40 54 -116 138
-168 187 -52 48 -135 116 -185 150 -49 34 -112 72 -140 85 -28 12 -73 36 -99
53 -27 16 -80 37 -119 46 -40 9 -102 29 -138 46 -37 16 -100 33 -141 39 -40 5
-143 14 -228 19 -85 6 -229 12 -320 15z m950 -2796 c41 1 91 -3 110 -8 20 -5
51 -26 70 -45 l34 -35 0 -402 1 -403 -38 -71 c-24 -46 -73 -108 -139 -178 -56
-59 -140 -140 -186 -179 -47 -40 -121 -98 -166 -131 -45 -32 -100 -67 -124
-77 -24 -10 -62 -32 -85 -47 -23 -16 -67 -37 -97 -47 -30 -10 -89 -35 -130
-56 -41 -21 -113 -49 -160 -63 -47 -13 -112 -34 -145 -46 -33 -12 -100 -26
-150 -31 -49 -5 -180 -9 -290 -9 -110 0 -229 5 -264 10 -35 6 -86 23 -115 37
-28 14 -82 36 -119 49 -38 13 -108 49 -155 81 -47 32 -122 94 -167 138 -52 51
-100 111 -133 167 -29 48 -57 100 -63 115 -5 15 -16 72 -24 128 -8 55 -15 141
-15 190 0 50 7 138 15 197 7 59 22 122 31 140 9 18 38 65 65 103 26 39 71 96
99 128 30 34 100 89 164 132 87 58 126 77 179 89 37 9 87 25 110 37 23 11 60
27 82 35 23 9 114 19 215 26 96 6 477 14 845 17 369 4 704 8 745 9z"/>
<path d="M46775 7429 c-66 -1 -201 -8 -300 -15 -99 -7 -210 -17 -247 -23 -37
-5 -93 -21 -125 -36 -32 -15 -89 -36 -128 -46 -38 -11 -95 -35 -125 -53 -30
-18 -80 -45 -110 -59 -30 -14 -87 -49 -126 -78 -39 -30 -103 -80 -141 -111
-39 -31 -105 -95 -147 -140 -42 -46 -87 -99 -100 -118 -12 -19 -43 -66 -68
-105 -24 -38 -56 -104 -71 -145 -14 -41 -38 -104 -54 -140 l-28 -65 0 -270 0
-270 29 -65 c15 -36 41 -100 57 -142 15 -42 45 -103 65 -135 21 -32 53 -83 73
-113 20 -30 85 -105 146 -165 60 -61 135 -125 165 -143 30 -18 76 -47 102 -65
26 -18 78 -50 115 -73 37 -23 88 -49 113 -58 25 -9 70 -32 100 -50 30 -19 82
-41 114 -51 33 -9 89 -31 125 -49 44 -22 98 -39 164 -50 57 -9 129 -29 170
-47 45 -20 114 -39 187 -51 72 -12 139 -30 180 -49 36 -16 107 -38 158 -49 58
-12 116 -32 155 -54 34 -19 82 -39 107 -46 25 -6 101 -39 170 -73 69 -33 157
-84 195 -113 39 -28 93 -76 121 -106 28 -30 58 -67 66 -84 9 -16 28 -74 44
-129 21 -72 29 -121 28 -175 0 -43 -12 -128 -28 -200 -15 -69 -33 -138 -39
-155 -6 -16 -37 -65 -69 -107 -32 -43 -77 -93 -101 -112 -23 -19 -71 -57 -106
-85 -35 -28 -80 -56 -100 -62 -20 -6 -66 -27 -103 -45 -42 -21 -97 -39 -145
-47 -51 -8 -187 -11 -393 -11 -173 1 -352 6 -398 12 -48 7 -110 24 -150 41
-37 16 -105 39 -152 51 -47 12 -105 34 -130 50 -25 16 -72 39 -105 51 -33 12
-76 34 -95 49 -19 15 -53 38 -75 52 -22 14 -74 54 -115 88 -41 35 -106 91
-145 125 -38 34 -84 70 -102 79 -18 9 -47 16 -65 16 -19 0 -49 -8 -68 -18 -19
-10 -70 -46 -114 -81 -43 -36 -116 -101 -161 -146 -54 -53 -85 -93 -89 -113
-5 -18 -1 -44 8 -65 8 -19 35 -61 61 -94 25 -32 65 -75 88 -96 23 -21 78 -69
122 -106 44 -38 96 -76 115 -86 19 -10 56 -33 82 -51 25 -19 67 -44 94 -55 26
-12 70 -36 98 -54 28 -18 69 -38 91 -45 22 -7 69 -28 104 -47 35 -19 105 -45
155 -58 50 -13 117 -36 149 -50 32 -15 88 -31 125 -36 37 -5 173 -21 302 -34
129 -14 273 -25 320 -25 47 0 141 7 210 15 69 9 196 22 283 30 142 13 165 18
235 49 42 19 106 42 142 51 36 9 85 29 110 45 25 16 70 40 100 54 30 13 107
66 170 116 63 51 152 129 198 174 46 44 112 124 147 177 36 53 74 118 85 145
12 27 37 81 56 120 25 50 40 97 49 163 8 50 23 134 35 186 12 57 20 131 20
187 0 58 -8 124 -20 174 -10 45 -24 122 -30 170 -6 49 -15 104 -20 122 -5 18
-22 54 -39 80 -16 26 -38 67 -49 92 -11 25 -45 76 -76 114 -31 37 -96 104
-144 148 -48 45 -128 111 -178 149 -51 37 -115 79 -143 93 -27 14 -72 40 -98
56 -26 17 -70 37 -97 45 -27 8 -76 30 -110 49 -33 18 -94 41 -134 50 -41 9
-99 29 -130 45 -32 16 -79 33 -107 39 -27 6 -76 16 -107 21 -32 6 -93 24 -135
42 -46 18 -126 39 -194 50 -76 12 -138 29 -180 48 -35 17 -106 39 -157 50 -54
12 -116 33 -145 50 -29 16 -82 40 -118 53 -36 14 -94 42 -128 64 -34 21 -80
53 -103 69 -23 17 -77 70 -120 119 -63 70 -81 99 -94 144 -9 32 -27 93 -41
137 -16 50 -26 105 -26 145 -1 47 8 94 32 170 18 58 39 123 47 145 8 24 43 71
86 117 40 42 103 97 140 122 38 24 92 52 120 61 29 10 78 30 108 46 30 16 68
33 84 39 16 6 75 15 130 21 56 5 178 10 271 10 94 0 229 -5 300 -11 119 -10
137 -14 210 -49 44 -21 107 -46 140 -56 33 -9 85 -32 115 -51 30 -18 73 -40
95 -48 22 -7 78 -38 125 -67 47 -30 117 -76 155 -104 39 -27 103 -80 144 -118
41 -37 88 -75 104 -84 18 -9 43 -13 63 -10 19 3 50 18 71 34 20 15 94 91 165
168 87 94 132 152 140 177 8 28 8 44 -2 68 -7 16 -49 67 -94 112 -44 45 -114
110 -156 146 -41 35 -93 73 -115 84 -22 11 -56 33 -75 48 -19 15 -53 36 -75
48 -22 11 -63 36 -92 55 -29 19 -76 43 -105 53 -29 9 -80 32 -113 50 -33 18
-91 40 -129 49 -38 9 -90 27 -115 40 -26 12 -65 28 -87 34 -23 6 -151 20 -285
31 -134 11 -298 19 -364 19z"/>
<path d="M17010 7396 c-102 1 -237 -1 -300 -5 -63 -3 -125 -12 -138 -19 -13
-7 -32 -28 -42 -45 -11 -18 -20 -44 -20 -59 0 -14 16 -56 34 -91 19 -36 42
-92 51 -124 10 -32 32 -86 51 -121 19 -35 43 -94 53 -132 11 -38 31 -86 45
-107 15 -21 36 -69 47 -108 12 -38 36 -98 55 -131 19 -34 41 -86 50 -115 9
-30 31 -82 51 -117 19 -35 43 -95 54 -133 11 -38 30 -87 44 -109 13 -21 34
-69 46 -107 12 -37 37 -96 55 -129 19 -34 41 -86 50 -115 9 -30 31 -82 49
-116 19 -34 42 -91 50 -125 9 -35 31 -90 50 -123 18 -33 40 -84 49 -113 8 -29
33 -86 55 -125 21 -40 44 -92 51 -117 6 -25 27 -72 45 -105 18 -33 41 -89 50
-125 9 -36 32 -92 50 -125 18 -33 41 -87 50 -120 9 -33 32 -88 51 -121 19 -34
41 -93 50 -130 8 -38 30 -95 49 -129 18 -33 41 -85 50 -115 10 -30 32 -80 50
-110 19 -30 42 -90 53 -133 11 -43 32 -96 46 -117 14 -21 35 -69 47 -107 12
-37 36 -95 54 -128 18 -33 41 -87 50 -120 10 -33 34 -91 55 -130 20 -38 43
-92 49 -120 7 -27 27 -76 46 -110 18 -33 42 -94 53 -135 10 -41 33 -97 51
-125 17 -27 40 -80 51 -116 13 -42 39 -92 72 -139 35 -48 67 -80 93 -94 36
-19 57 -21 222 -21 l181 0 43 30 c24 17 53 45 65 63 12 17 25 49 28 69 4 21
30 85 57 143 28 58 71 146 95 195 24 50 48 112 54 139 6 27 26 77 46 111 19
35 41 86 50 114 8 29 28 73 44 98 16 25 39 76 51 112 12 36 35 87 51 113 16
26 40 83 54 127 14 45 38 103 55 129 16 27 37 77 45 112 8 35 28 84 44 109 17
25 39 74 50 111 11 36 33 87 50 113 16 26 39 78 51 115 12 37 38 99 59 137 21
39 42 91 49 117 6 25 26 73 45 105 19 32 42 85 51 118 9 33 30 81 46 106 16
25 40 77 53 115 13 38 37 91 54 117 16 26 38 79 47 117 9 37 32 92 50 120 18
29 39 75 45 103 7 29 29 84 50 122 21 39 46 95 54 126 9 31 32 82 51 114 20
32 42 83 51 114 9 31 31 81 50 112 18 31 39 81 45 110 6 30 28 86 49 124 21
39 46 96 55 128 9 33 33 85 52 117 19 32 41 85 50 117 8 32 30 83 48 113 19
30 39 78 46 105 6 28 29 79 49 115 21 36 45 91 54 124 8 32 31 86 52 119 21
34 39 77 41 102 4 27 0 53 -11 73 -9 17 -31 40 -49 49 -28 16 -63 18 -302 18
-235 0 -274 -2 -301 -17 -17 -9 -51 -36 -75 -60 -34 -33 -49 -58 -64 -107 -10
-34 -32 -83 -47 -108 -16 -24 -38 -79 -49 -121 -12 -42 -36 -104 -54 -137 -18
-33 -40 -87 -50 -120 -9 -33 -32 -87 -50 -120 -19 -33 -41 -89 -50 -125 -9
-36 -30 -86 -46 -111 -16 -25 -40 -78 -54 -118 -13 -40 -37 -96 -54 -124 -16
-29 -36 -79 -46 -112 -9 -33 -29 -83 -45 -111 -15 -27 -38 -84 -50 -125 -12
-41 -37 -99 -55 -129 -19 -30 -41 -84 -50 -120 -9 -36 -31 -92 -50 -125 -18
-33 -40 -87 -50 -120 -9 -33 -29 -81 -45 -106 -16 -26 -36 -68 -44 -93 -9 -26
-16 -53 -16 -61 0 -8 -18 -48 -39 -89 -22 -41 -47 -98 -55 -127 -9 -29 -29
-76 -46 -105 -16 -30 -39 -89 -51 -131 -11 -43 -35 -103 -54 -133 -18 -30 -40
-80 -49 -110 -9 -30 -32 -80 -50 -110 -19 -31 -42 -86 -50 -122 -8 -37 -30
-90 -47 -118 -17 -28 -40 -78 -50 -111 -11 -34 -34 -88 -53 -122 -19 -34 -42
-93 -51 -132 -8 -38 -23 -77 -31 -87 -9 -9 -28 -20 -43 -23 -15 -3 -39 -1 -54
4 -14 6 -31 20 -38 32 -6 12 -18 52 -25 88 -8 37 -28 89 -48 121 -19 30 -42
82 -51 115 -9 33 -32 88 -51 121 -19 34 -39 86 -44 115 -6 30 -31 95 -55 144
-24 50 -51 113 -59 141 -8 27 -30 76 -49 107 -19 31 -39 80 -45 111 -6 30 -29
90 -50 133 -22 43 -45 100 -51 128 -7 27 -28 78 -48 113 -20 35 -42 93 -49
129 -8 36 -29 93 -48 126 -19 34 -42 89 -51 122 -9 33 -33 89 -52 124 -20 35
-44 95 -54 134 -9 38 -29 86 -43 108 -14 21 -35 73 -47 116 -11 43 -36 106
-55 139 -19 34 -41 93 -50 130 -8 38 -31 93 -49 124 -19 30 -39 78 -46 105 -6
28 -29 82 -50 122 -22 40 -46 104 -54 144 -9 42 -29 94 -49 128 -19 31 -40 76
-46 101 -7 25 -29 77 -50 115 -21 39 -48 104 -60 145 -12 41 -38 102 -58 135
-19 33 -46 77 -59 97 -12 21 -38 45 -55 54 -27 14 -66 18 -218 20z"/>
<path d="M22755 7397 c-126 1 -251 -2 -276 -7 -26 -4 -58 -16 -73 -25 -14 -9
-35 -32 -46 -49 -11 -18 -25 -66 -31 -107 -7 -50 -10 -335 -10 -884 1 -445 4
-1138 6 -1540 2 -411 8 -763 14 -805 5 -41 17 -106 25 -145 8 -38 18 -110 21
-160 4 -49 11 -126 16 -170 7 -52 22 -103 43 -150 18 -38 39 -88 46 -110 6
-22 45 -107 86 -190 41 -82 93 -176 117 -207 23 -31 68 -88 99 -126 31 -38 91
-100 132 -137 41 -37 97 -83 123 -101 26 -19 59 -42 73 -53 14 -10 66 -41 115
-68 50 -28 116 -58 148 -67 32 -9 86 -33 121 -52 53 -28 81 -37 158 -45 51 -6
163 -22 248 -36 133 -22 175 -24 295 -20 80 3 164 12 195 21 30 9 109 21 175
27 66 6 138 15 159 20 21 6 55 21 75 33 20 13 68 33 106 46 39 12 86 35 106
50 19 15 66 44 105 64 38 20 110 66 159 101 50 35 108 74 130 86 21 12 66 47
98 78 33 31 87 91 121 133 33 42 73 95 89 118 15 22 42 49 60 60 17 11 40 20
50 20 9 0 26 -9 37 -20 19 -19 20 -33 20 -322 0 -269 2 -307 18 -338 9 -19 33
-45 52 -58 l35 -24 240 5 c165 4 252 10 280 20 23 8 49 27 61 45 13 18 24 55
27 92 4 33 6 1146 4 2473 -2 2286 -3 2414 -20 2444 -9 18 -29 41 -44 50 -24
16 -56 18 -298 18 -244 0 -273 -2 -297 -18 -14 -10 -35 -35 -45 -55 -17 -35
-18 -112 -23 -1692 l-5 -1655 -31 -95 c-18 -52 -39 -125 -47 -163 -9 -37 -29
-86 -45 -110 -16 -23 -41 -64 -55 -92 -14 -27 -52 -84 -85 -126 -33 -41 -102
-114 -153 -162 -52 -47 -131 -111 -175 -141 -45 -30 -106 -67 -135 -81 -29
-15 -69 -38 -89 -50 -19 -13 -74 -33 -123 -44 -48 -11 -106 -30 -128 -42 -23
-11 -71 -27 -108 -35 -45 -9 -134 -14 -281 -14 -147 0 -236 5 -281 14 -37 8
-86 24 -108 36 -23 11 -76 29 -117 40 -42 10 -93 30 -113 43 -20 14 -61 37
-91 52 -30 15 -76 46 -104 69 -27 22 -72 61 -99 86 -27 25 -79 83 -115 130
-36 46 -74 105 -85 130 -11 25 -35 70 -54 101 -25 42 -38 79 -50 145 -8 49
-29 121 -45 159 -17 39 -36 86 -41 105 -7 23 -12 621 -16 1707 l-6 1672 -21
28 c-12 15 -36 37 -55 48 -31 18 -54 20 -264 22z"/>
<path d="M13680 5913 c-15 4 -41 -1 -65 -12 -22 -10 -68 -47 -102 -82 -34 -35
-82 -90 -105 -121 -24 -31 -77 -96 -118 -145 -41 -48 -102 -122 -135 -165 -33
-42 -75 -98 -94 -124 -18 -26 -40 -64 -49 -85 -9 -23 -12 -51 -8 -71 3 -19 30
-67 59 -109 28 -41 69 -95 89 -119 20 -25 74 -90 120 -146 46 -55 128 -150
183 -210 55 -61 163 -181 240 -269 77 -87 192 -215 255 -284 63 -69 250 -263
416 -431 165 -168 419 -423 565 -566 145 -144 314 -306 375 -360 61 -55 137
-121 169 -149 32 -27 92 -78 134 -112 45 -37 90 -65 109 -69 19 -4 44 -2 57 4
13 6 28 26 34 45 10 28 9 55 -4 129 -10 55 -30 124 -51 169 -18 42 -41 113
-49 158 -9 45 -31 117 -50 159 -19 44 -41 118 -50 171 -9 52 -30 123 -46 160
-16 36 -39 101 -50 146 -11 44 -35 107 -53 140 -18 33 -41 83 -51 110 -11 28
-41 86 -67 130 -26 44 -67 110 -90 147 -24 38 -76 112 -116 165 -40 54 -89
123 -109 153 -21 30 -61 91 -90 136 -29 44 -94 132 -145 196 -51 64 -111 140
-133 168 -22 29 -83 107 -136 174 -52 66 -112 146 -132 176 -20 30 -80 107
-133 170 -52 63 -118 142 -145 175 -27 33 -82 103 -122 155 -39 52 -108 133
-152 178 -44 46 -91 90 -105 97 -14 6 -36 15 -50 18z"/>
</g>
<g transform="translate(0.000000,1700.000000) scale(0.100000,-0.100000)" fill="#2f3430" stroke="none">
<path d="M25985 13608 c-93 0 -218 -4 -277 -9 -96 -6 -117 -12 -195 -48 -49
-22 -108 -43 -132 -47 -24 -4 -66 -23 -95 -42 -28 -19 -71 -44 -96 -56 -25
-12 -77 -46 -115 -74 -39 -29 -101 -78 -138 -110 -38 -31 -109 -101 -159 -156
l-90 -98 7 -63 c5 -51 3 -65 -10 -79 -9 -9 -25 -16 -35 -16 -10 0 -26 8 -35
17 -14 13 -16 26 -10 62 4 25 7 66 7 91 -1 25 -2 158 -4 296 -3 231 -5 254
-22 273 -11 12 -27 21 -36 21 -10 0 -34 -14 -55 -30 -21 -17 -49 -33 -62 -36
-13 -4 -40 -4 -59 -1 -20 3 -51 18 -69 32 -19 14 -43 25 -54 25 -11 0 -29 -12
-38 -27 -17 -26 -18 -128 -18 -1988 0 -1728 2 -1964 15 -1990 8 -16 29 -36 45
-45 21 -10 65 -14 150 -15 99 0 126 3 148 17 14 10 32 28 39 40 10 18 13 302
15 1408 2 965 6 1397 14 1424 6 22 21 55 34 75 12 20 34 60 49 90 15 29 58 94
95 145 38 50 111 132 162 182 52 50 117 104 144 119 28 16 67 41 87 57 20 16
63 38 95 48 32 11 69 29 83 39 14 10 40 26 58 35 19 10 76 21 130 27 54 5 152
19 220 31 l123 22 192 -28 c106 -15 214 -31 240 -37 27 -5 67 -22 90 -38 23
-15 62 -37 87 -48 29 -13 82 -57 147 -122 74 -74 109 -118 128 -159 15 -31 33
-70 42 -87 9 -16 26 -48 39 -70 17 -31 25 -68 34 -160 6 -66 22 -169 36 -230
19 -81 27 -159 34 -300 5 -104 9 -690 10 -1302 l0 -1112 24 -28 c24 -28 25
-28 165 -31 139 -3 141 -3 166 22 16 17 23 31 18 43 -3 10 -17 34 -30 53 l-23
35 0 1248 0 1248 47 50 47 50 6 109 c6 102 9 113 42 167 20 32 46 78 58 103
13 25 49 77 81 116 32 40 96 107 141 149 46 43 101 89 123 102 22 14 52 36 66
50 14 13 59 37 98 53 40 17 85 39 101 50 15 11 40 24 54 30 15 5 71 15 124 20
53 6 144 20 202 32 58 11 139 21 180 21 41 -1 103 -8 137 -17 34 -9 111 -23
170 -31 60 -9 117 -18 128 -22 11 -3 38 -18 60 -33 22 -15 67 -41 101 -59 34
-18 89 -61 127 -99 36 -37 93 -105 126 -152 34 -47 66 -103 72 -125 6 -22 21
-71 34 -110 13 -38 34 -97 46 -130 l24 -60 5 -1420 c5 -1330 6 -1423 22 -1448
10 -15 34 -31 56 -38 22 -6 86 -9 156 -7 114 3 119 4 141 30 13 15 27 47 30
70 4 24 5 671 2 1438 -3 1001 -8 1418 -16 1475 -7 47 -25 107 -42 145 -17 36
-37 98 -45 138 -10 54 -29 100 -69 170 -30 54 -78 128 -107 167 -29 38 -84
103 -123 144 -43 45 -111 101 -175 143 -58 38 -123 73 -145 79 -22 6 -77 28
-122 51 -81 39 -86 41 -225 49 -79 4 -215 8 -303 8 -88 0 -213 -4 -279 -9
-107 -8 -127 -13 -205 -49 -47 -22 -109 -45 -138 -51 -29 -7 -81 -31 -118 -55
-37 -25 -76 -47 -88 -51 -12 -4 -58 -32 -102 -62 -44 -31 -116 -88 -159 -126
-44 -39 -118 -114 -165 -167 -47 -53 -105 -120 -128 -149 -28 -33 -43 -62 -43
-80 0 -15 -5 -41 -11 -58 -6 -17 -19 -34 -30 -37 -10 -4 -28 -3 -39 0 -11 3
-23 17 -26 31 -3 13 -3 37 1 52 3 15 9 42 12 60 3 20 -2 51 -12 78 -9 24 -32
66 -50 92 -18 26 -42 67 -54 91 -12 23 -68 88 -125 144 -56 56 -144 130 -194
164 -62 42 -113 68 -152 78 -33 9 -91 32 -129 51 -65 34 -75 36 -207 45 -76 4
-215 8 -309 7z"/>
<path d="M32930 13608 c-129 0 -283 -5 -343 -9 -79 -6 -124 -15 -170 -35 -34
-14 -78 -32 -97 -39 -19 -8 -60 -19 -91 -25 -37 -7 -80 -26 -124 -55 -37 -25
-73 -45 -80 -45 -6 0 -52 -26 -101 -57 -49 -32 -118 -80 -153 -108 -36 -27
-98 -81 -139 -120 -41 -38 -106 -108 -146 -155 -39 -47 -92 -114 -117 -150
-26 -36 -56 -85 -69 -110 -12 -25 -38 -68 -57 -96 -19 -28 -41 -77 -49 -110
-9 -32 -28 -79 -43 -104 -15 -25 -33 -61 -38 -80 -6 -19 -16 -70 -23 -113 -6
-42 -25 -113 -41 -158 -18 -50 -33 -118 -40 -182 -7 -64 -9 -215 -6 -407 4
-221 9 -320 20 -360 8 -30 24 -79 36 -108 11 -29 28 -96 35 -148 11 -73 23
-109 50 -158 19 -34 43 -85 52 -112 9 -27 29 -67 44 -89 15 -22 37 -60 49 -83
12 -24 57 -89 99 -144 42 -56 98 -128 123 -162 25 -34 73 -86 106 -116 33 -30
82 -73 109 -96 27 -22 72 -55 99 -74 28 -18 65 -47 84 -63 19 -16 52 -37 75
-47 23 -10 57 -30 76 -44 19 -15 64 -36 100 -47 36 -11 91 -36 123 -55 49 -30
74 -38 156 -49 53 -7 111 -20 129 -29 17 -9 44 -16 61 -16 16 0 52 12 78 26
44 23 56 25 149 22 l102 -3 50 -47 c38 -36 59 -48 82 -48 17 0 41 5 53 11 11
7 35 27 53 45 19 21 41 34 56 34 14 0 42 -13 63 -30 21 -16 49 -30 63 -30 14
0 48 11 77 25 34 17 81 29 141 35 49 6 101 13 115 15 14 3 47 24 73 46 27 21
58 41 70 44 11 2 38 7 59 10 26 4 53 20 82 46 32 29 55 41 96 49 29 6 71 23
93 38 21 15 58 39 82 54 24 15 79 55 124 88 44 34 87 75 95 91 8 15 15 49 15
74 0 25 -7 59 -15 75 -8 16 -38 56 -65 89 -40 48 -57 61 -78 61 -19 0 -63 -26
-138 -81 -60 -44 -122 -88 -137 -96 -16 -8 -48 -29 -72 -48 -24 -18 -61 -39
-82 -45 -21 -7 -67 -29 -103 -51 -46 -26 -85 -41 -133 -49 -38 -6 -85 -17
-105 -24 -20 -8 -69 -26 -108 -40 -64 -23 -89 -26 -275 -32 -112 -3 -268 -1
-346 4 -129 9 -148 13 -220 46 -43 19 -111 40 -150 47 -39 6 -89 22 -110 35
-21 13 -67 38 -103 56 -36 18 -103 57 -150 87 -58 38 -131 101 -230 201 -121
122 -155 164 -207 251 -34 57 -67 118 -73 134 -6 17 -29 59 -50 95 -27 45 -42
85 -49 130 -6 36 -15 79 -20 95 -5 17 -21 56 -35 87 -18 38 -30 88 -37 150 -6
51 -9 118 -6 149 3 31 11 65 18 77 8 12 20 25 29 29 8 5 734 10 1612 13 l1597
5 28 21 c15 11 35 34 43 50 11 22 14 70 14 199 0 94 -5 197 -12 230 -6 33 -18
134 -27 224 -14 155 -17 167 -49 227 -20 35 -43 92 -51 126 -9 35 -34 90 -55
123 -21 33 -46 78 -55 100 -8 21 -46 80 -84 130 -37 49 -108 131 -158 180 -49
50 -114 110 -144 135 -30 25 -84 67 -120 92 -36 26 -90 58 -120 71 -30 13 -76
38 -102 55 -27 16 -72 36 -100 42 -29 7 -92 30 -140 52 -84 38 -96 41 -225 49
-76 4 -243 8 -372 7z m25 -359 c56 1 125 -6 180 -18 50 -11 135 -25 190 -31
85 -9 113 -17 195 -56 52 -25 109 -53 127 -62 17 -10 67 -43 112 -75 44 -32
114 -90 156 -128 41 -39 102 -108 135 -152 33 -45 76 -103 95 -129 20 -26 43
-71 51 -100 9 -29 34 -86 55 -125 39 -71 40 -75 49 -215 5 -79 10 -153 10
-165 0 -12 18 -43 40 -68 23 -26 40 -57 40 -70 0 -15 -10 -31 -25 -41 -19 -12
-37 -15 -78 -10 -28 4 -674 8 -1434 9 l-1383 2 -27 28 c-24 24 -28 35 -27 85
0 44 8 72 33 121 22 44 39 98 51 167 14 79 25 113 48 147 17 23 41 70 54 103
14 33 53 100 87 150 35 52 106 135 164 192 56 55 125 120 154 143 29 24 80 62
114 83 34 22 92 50 127 63 36 13 93 40 128 59 56 31 74 36 177 45 64 5 160 18
214 28 54 11 139 19 188 20z"/>
<path d="M37490 13608 c-124 0 -270 -4 -324 -8 -86 -7 -108 -13 -168 -44 -38
-20 -100 -43 -139 -52 -41 -9 -88 -29 -117 -48 -26 -18 -72 -45 -102 -60 -30
-14 -84 -47 -120 -71 -36 -24 -89 -64 -119 -87 -30 -24 -100 -89 -155 -146
-96 -97 -103 -102 -142 -102 -36 0 -43 4 -54 29 -9 23 -9 50 0 123 9 68 10
127 2 220 -7 93 -15 136 -29 160 -10 18 -34 41 -53 53 -28 16 -52 20 -121 20
-67 -1 -93 -5 -120 -21 -18 -11 -44 -39 -57 -62 -17 -30 -26 -69 -32 -135 -5
-51 -6 -910 -3 -1937 5 -1558 8 -1850 20 -1876 8 -17 29 -38 49 -47 27 -13 63
-17 157 -17 78 0 131 5 147 13 14 7 26 22 28 34 2 12 -4 35 -12 52 -9 16 -16
41 -16 54 0 13 16 46 35 73 22 30 35 61 35 80 0 20 -13 47 -37 79 l-38 48 0
116 0 117 33 41 33 42 2 1043 c3 945 5 1051 20 1128 11 52 28 101 45 127 15
23 45 68 67 100 22 32 94 112 160 178 66 66 138 132 160 146 22 14 65 42 96
62 31 21 84 48 120 62 35 14 81 37 102 50 21 14 49 30 64 36 14 5 71 14 127
20 55 5 147 19 204 29 57 11 145 20 198 20 57 0 131 -8 187 -20 50 -11 137
-24 192 -30 84 -9 107 -15 145 -40 25 -16 77 -45 115 -64 48 -24 91 -56 136
-103 37 -37 92 -106 123 -152 31 -46 61 -102 66 -125 6 -22 30 -78 52 -124
l41 -83 6 -178 6 -179 48 -50 47 -51 0 -1091 c0 -812 -3 -1097 -12 -1113 -6
-12 -24 -34 -40 -49 -15 -14 -28 -33 -28 -41 0 -8 16 -34 35 -57 26 -31 34
-48 29 -64 -4 -11 -15 -33 -25 -48 -11 -14 -19 -33 -19 -42 0 -8 11 -23 24
-32 21 -13 50 -15 166 -12 l142 3 25 29 25 29 -5 1386 c-3 762 -10 1450 -15
1529 -10 134 -13 149 -45 215 -19 40 -42 98 -50 129 -8 32 -26 77 -39 100 -14
24 -41 71 -61 106 -20 34 -55 86 -79 115 -23 28 -85 94 -137 145 -52 52 -111
102 -130 112 -20 10 -54 32 -75 49 -22 17 -64 39 -95 47 -31 9 -90 34 -132 56
-74 38 -82 40 -210 49 -74 4 -235 8 -359 7z"/>
<path d="M41995 13605 c-209 2 -423 0 -475 -4 -52 -4 -111 -11 -130 -16 -19
-4 -60 -20 -92 -36 -31 -16 -87 -35 -126 -44 -41 -9 -91 -30 -123 -50 -29 -19
-74 -43 -99 -52 -25 -9 -65 -31 -90 -48 -25 -18 -60 -40 -79 -50 -19 -9 -77
-51 -130 -93 -53 -42 -141 -122 -196 -177 -55 -55 -127 -133 -160 -174 -33
-40 -82 -103 -108 -140 -26 -36 -62 -93 -79 -126 -16 -33 -45 -82 -63 -110
-19 -27 -41 -79 -50 -115 -9 -36 -32 -97 -51 -136 -32 -65 -36 -82 -48 -235
-8 -90 -22 -204 -32 -254 -12 -58 -18 -133 -17 -210 0 -72 7 -152 17 -200 9
-44 23 -158 31 -254 14 -171 15 -177 54 -255 22 -45 43 -102 46 -128 4 -27 23
-73 42 -105 19 -32 46 -83 60 -113 13 -30 35 -66 48 -80 13 -14 37 -49 54 -79
18 -29 59 -89 92 -133 33 -43 97 -116 142 -162 45 -46 109 -106 143 -134 33
-27 93 -70 131 -95 39 -25 74 -50 78 -56 3 -6 27 -22 53 -35 26 -13 71 -40
100 -60 29 -19 72 -40 95 -46 23 -6 83 -30 132 -55 73 -36 104 -45 165 -51 43
-3 100 -17 132 -30 32 -13 64 -24 73 -24 8 0 40 14 70 31 53 30 59 31 150 27
93 -3 94 -3 132 -40 23 -23 49 -38 63 -38 14 0 40 15 63 38 38 37 39 37 131
40 79 3 102 0 141 -17 26 -12 60 -21 76 -21 16 0 46 7 66 14 21 8 75 19 121
25 68 7 94 16 140 44 31 19 88 44 125 55 37 11 82 31 100 45 18 13 55 36 83
50 28 14 83 50 121 79 38 29 108 85 154 124 46 39 116 105 154 146 39 41 91
99 116 129 25 30 71 91 101 136 31 45 59 92 63 105 4 13 25 48 45 78 21 30 46
80 55 110 10 30 26 66 35 80 10 14 25 40 35 59 9 18 23 75 31 126 8 52 27 123
44 163 22 52 33 99 40 170 5 53 10 207 10 342 0 135 -4 284 -9 332 -6 57 -20
113 -41 165 -20 47 -38 117 -46 178 -12 82 -21 110 -50 157 -19 32 -43 82 -54
113 -10 30 -49 100 -87 155 -37 56 -82 125 -100 153 -17 29 -51 76 -75 106
-24 29 -88 99 -143 154 -55 55 -140 130 -190 167 -49 37 -108 77 -130 88 -22
11 -57 34 -78 50 -21 17 -55 36 -75 43 -20 6 -64 29 -97 50 -44 28 -82 43
-137 53 -42 8 -102 28 -135 44 -32 17 -86 36 -118 42 -37 7 -204 13 -440 15z
m-65 -356 c41 0 120 -8 175 -18 55 -11 159 -24 230 -30 122 -9 134 -12 205
-49 41 -22 101 -47 132 -56 31 -9 77 -31 101 -50 25 -19 55 -40 68 -46 13 -7
56 -38 94 -69 39 -30 106 -88 150 -127 44 -40 106 -105 137 -145 31 -41 79
-104 107 -141 28 -36 62 -95 76 -129 14 -35 37 -81 51 -102 14 -22 33 -75 44
-127 11 -50 33 -122 50 -161 26 -58 33 -91 40 -187 5 -64 10 -182 10 -262 0
-80 -5 -200 -10 -268 -8 -99 -15 -137 -41 -200 -17 -42 -37 -114 -45 -160 -11
-63 -28 -108 -70 -190 -31 -59 -73 -134 -93 -167 -21 -33 -47 -74 -57 -92 -10
-17 -44 -62 -75 -100 -31 -38 -99 -107 -150 -154 -52 -47 -132 -111 -179 -141
-47 -31 -110 -68 -140 -83 -29 -15 -70 -38 -90 -51 -19 -13 -73 -32 -120 -43
-47 -11 -118 -34 -159 -51 -60 -26 -94 -33 -190 -41 -64 -4 -177 -8 -251 -8
-74 0 -183 4 -241 8 -89 7 -118 14 -185 44 -43 19 -117 42 -163 51 -64 12 -96
24 -135 51 -29 19 -68 40 -88 45 -19 6 -51 21 -69 35 -19 13 -52 37 -74 52
-22 15 -79 60 -126 99 -47 40 -120 112 -162 161 -42 48 -94 110 -117 137 -22
26 -54 74 -70 106 -16 32 -41 75 -55 96 -14 21 -33 63 -41 93 -9 31 -34 88
-55 128 -38 68 -40 77 -49 204 -6 73 -17 174 -25 224 -8 49 -15 137 -15 195 0
58 9 182 20 275 11 94 24 202 29 242 6 52 17 85 40 122 17 28 39 82 50 120 10
39 30 84 45 102 15 17 39 55 53 83 14 28 50 83 79 123 30 39 102 120 161 180
60 60 137 129 173 154 36 26 85 56 110 69 25 12 62 36 83 52 21 17 67 39 103
50 37 11 87 33 113 48 25 16 67 33 91 38 25 6 90 13 145 17 55 3 145 15 200
25 55 10 134 18 175 19z"/>
<path d="M46310 13605 c-184 2 -381 0 -437 -4 -91 -8 -113 -13 -185 -49 -46
-22 -102 -43 -125 -47 -23 -3 -65 -22 -95 -40 -29 -19 -71 -43 -93 -53 -22
-11 -80 -53 -130 -94 -49 -41 -117 -106 -151 -144 -34 -38 -88 -112 -122 -164
-50 -79 -63 -107 -72 -165 -7 -38 -21 -114 -32 -167 -11 -53 -20 -125 -20
-161 0 -35 9 -101 20 -148 12 -46 26 -110 32 -142 7 -35 25 -78 47 -110 19
-28 42 -65 50 -81 8 -15 51 -66 96 -113 45 -47 117 -112 161 -144 43 -33 99
-71 125 -83 25 -13 72 -40 104 -59 33 -20 73 -39 90 -42 18 -4 64 -25 103 -46
40 -22 102 -45 142 -54 39 -8 102 -30 140 -50 55 -28 90 -38 181 -49 84 -11
130 -24 189 -50 52 -23 105 -38 162 -46 64 -8 103 -20 155 -47 39 -20 101 -44
139 -54 38 -10 87 -31 110 -47 23 -16 64 -40 91 -54 28 -13 82 -49 121 -81 42
-34 89 -84 118 -127 27 -39 55 -90 64 -113 11 -31 15 -87 16 -217 0 -96 -3
-201 -8 -233 -6 -48 -19 -75 -79 -164 -59 -87 -88 -121 -160 -178 -48 -39
-104 -77 -125 -84 -20 -8 -62 -29 -92 -47 -30 -18 -75 -38 -100 -43 -25 -5
-121 -13 -213 -17 l-169 -7 -45 -38 c-24 -22 -53 -39 -64 -39 -11 0 -34 13
-50 30 -17 16 -40 37 -52 45 -15 11 -47 15 -112 15 -49 0 -116 4 -148 10 -34
5 -80 22 -109 40 -28 17 -87 40 -132 51 -49 12 -98 32 -123 50 -24 16 -64 39
-90 51 -27 11 -77 41 -113 67 -36 25 -90 67 -120 93 -30 26 -78 67 -107 91
-35 31 -65 47 -93 52 -33 6 -51 2 -94 -19 -29 -14 -76 -51 -105 -80 -28 -30
-51 -62 -51 -71 0 -8 6 -30 14 -49 7 -18 29 -50 47 -71 18 -20 77 -76 130
-124 52 -47 125 -107 160 -132 35 -25 80 -52 99 -59 19 -8 60 -31 90 -51 32
-22 82 -45 120 -54 36 -9 93 -33 128 -52 51 -29 81 -37 167 -49 71 -9 121 -22
154 -39 28 -14 57 -25 64 -25 8 0 34 13 58 30 24 16 54 30 67 30 13 0 37 -13
53 -30 17 -16 40 -37 52 -45 16 -11 51 -15 147 -15 96 0 131 4 147 15 12 8 35
29 52 45 16 17 40 30 53 30 13 0 41 -11 63 -25 22 -13 48 -25 58 -25 10 0 36
9 58 21 22 11 75 26 117 34 42 7 86 17 97 21 11 4 38 20 61 35 23 15 65 37 93
48 29 11 71 35 94 53 23 19 54 41 68 50 15 9 70 60 122 113 53 52 119 126 146
162 30 40 60 94 72 132 12 36 38 95 58 131 l36 65 0 260 0 260 -34 69 c-18 38
-44 95 -57 128 -14 36 -52 95 -93 146 -39 48 -106 117 -150 154 -43 36 -94 74
-112 84 -19 9 -50 30 -69 45 -19 16 -62 38 -95 49 -33 11 -85 36 -116 55 -38
24 -82 40 -134 50 -48 9 -95 26 -124 44 -25 16 -56 32 -69 36 -12 4 -65 13
-117 20 -62 8 -122 25 -177 48 -62 27 -108 38 -183 47 -83 9 -113 17 -175 49
-41 21 -109 46 -151 55 -50 11 -90 27 -117 47 -23 17 -69 41 -102 54 -33 13
-89 46 -124 74 -34 28 -88 79 -119 114 -42 48 -59 78 -72 123 -9 32 -28 94
-41 137 -13 43 -24 97 -24 120 0 23 15 95 34 159 19 64 41 128 48 141 7 14 40
58 74 98 40 49 90 94 148 134 48 33 98 66 111 73 14 7 62 19 107 27 49 8 111
27 153 47 l70 33 240 0 240 0 74 -33 c40 -17 115 -41 166 -51 67 -14 107 -28
138 -50 24 -16 64 -38 88 -47 24 -10 85 -45 134 -78 50 -32 133 -98 185 -146
52 -47 111 -98 131 -113 21 -15 49 -27 66 -27 25 0 43 13 96 70 42 44 70 84
78 110 10 31 10 49 0 83 -10 34 -35 65 -131 158 -75 73 -140 127 -178 147 -33
17 -65 38 -71 46 -7 8 -42 27 -79 42 -37 16 -89 43 -117 61 -32 20 -77 38
-125 48 -41 9 -95 27 -120 41 -25 14 -70 32 -100 40 -42 12 -132 16 -390 19z"/>
</g>
</svg>